<?xml version="1.0" encoding="UTF-8"?>
<svg id="Lager_2" data-name="Lager 2" xmlns="http://www.w3.org/2000/svg" viewBox="0 0 54.27 48.6">
  <defs>
    <style>
      .cls-1 {
        fill: #fff;
      }
    </style>
  </defs>
  <g id="Layer_1" data-name="Layer 1">
    <g>
      <g>
        <path class="cls-1" d="M14.66,17.48c.34,0,1.64-.18,1.81-.51L23.82,1.41c.25-.47.07-1.05-.39-1.3-.47-.25-1.05-.07-1.3.4l-8.31,15.56c-.25.47-.07,1.05.4,1.3.14.08.3.11.45.11Z"/>
        <path class="cls-1" d="M39.61,17.48c.15,0,.31-.04.45-.11.47-.25.64-.83.39-1.3L32.15.51c-.25-.47-.83-.65-1.3-.4-.47.25-.65.83-.39,1.3l7.35,15.56c.17.32,1.46.51,1.81.51Z"/>
      </g>
      <path class="cls-1" d="M53.31,15.56H.96c-.53,0-.96.76-.96,1.7s.43,1.7.96,1.7h1.49l6.7,27.64c.07,1.11.99,1.99,2.12,1.99h31.73c1.13,0,2.05-.88,2.12-1.99l6.71-27.64h1.49c.53,0,.96-.76.96-1.7s-.43-1.7-.96-1.7ZM9.51,19.51h2.97l1.1,11.37h-2.74l-1.32-11.37ZM12.27,43.26l-1.09-9.38h2.7l.9,9.38h-2.51ZM17.58,19.51h2.98l.49,11.37h-2.76l-.72-11.37ZM19.08,43.26l-.59-9.38h2.7l.41,9.38h-2.51ZM28.39,43.26h-2.51l-.09-9.38h2.7l-.09,9.38ZM28.52,30.88h-2.76l-.11-11.37h2.98l-.11,11.37ZM35.2,43.26h-2.51l.41-9.38h2.7l-.59,9.38ZM35.98,30.88h-2.76l.49-11.37h2.98l-.72,11.37ZM42.01,43.26h-2.51l.91-9.38h2.7l-1.09,9.38ZM43.45,30.88h-2.76l1.1-11.37h2.98l-1.32,11.37Z"/>
    </g>
  </g>
</svg>