<?xml version="1.0" encoding="UTF-8"?>
<svg id="Lager_2" data-name="Lager 2" xmlns="http://www.w3.org/2000/svg" viewBox="0 0 294.34 163.43">
  <defs>
    <style>
      .cls-1 {
        fill: #fff;
      }
    </style>
  </defs>
  <g id="Lager_1-2" data-name="Lager 1">
    <g>
      <path class="cls-1" d="M3.89,62.47v14.85c2.67-3.6,6.28-5.39,10.85-5.39,2.67,0,5.12.66,7.37,1.97,2.24,1.31,4.02,3.1,5.34,5.36,1.31,2.26,1.97,4.71,1.97,7.34s-.66,5.08-1.97,7.34c-1.31,2.26-3.09,4.05-5.34,5.36-2.24,1.32-4.7,1.97-7.37,1.97-4.41,0-8.02-1.89-10.85-5.68v5.39H0v-38.51h3.89ZM5.45,91.96c.97,1.64,2.27,2.95,3.92,3.92,1.64.97,3.43,1.45,5.36,1.45s3.71-.48,5.34-1.45c1.62-.97,2.92-2.27,3.89-3.92.97-1.64,1.45-3.43,1.45-5.37s-.48-3.71-1.45-5.34c-.97-1.62-2.26-2.92-3.89-3.89-1.62-.97-3.4-1.45-5.34-1.45s-3.72.48-5.36,1.45c-1.64.97-2.95,2.26-3.92,3.89-.97,1.62-1.45,3.4-1.45,5.34s.48,3.72,1.45,5.37Z"/>
      <path class="cls-1" d="M40.22,99.3c-2.26-1.31-4.05-3.1-5.37-5.36-1.31-2.26-1.97-4.71-1.97-7.34s.66-5.13,1.97-7.39c1.31-2.26,3.1-4.06,5.37-5.39,2.26-1.33,4.71-2,7.34-2s5.13.67,7.4,2c2.26,1.33,4.06,3.13,5.39,5.39s2,4.73,2,7.39-.67,5.08-2,7.34c-1.33,2.26-3.13,4.05-5.39,5.36-2.26,1.32-4.73,1.97-7.4,1.97s-5.08-.66-7.34-1.97ZM52.98,95.93c1.64-.97,2.95-2.28,3.92-3.94.97-1.66,1.45-3.46,1.45-5.39s-.48-3.79-1.45-5.45c-.97-1.66-2.27-2.98-3.92-3.94-1.64-.97-3.45-1.45-5.42-1.45s-3.72.48-5.37,1.45c-1.64.97-2.95,2.28-3.92,3.94-.97,1.66-1.45,3.48-1.45,5.45s.48,3.73,1.45,5.39c.97,1.66,2.27,2.98,3.92,3.94,1.64.97,3.43,1.45,5.37,1.45s3.78-.48,5.42-1.45Z"/>
      <path class="cls-1" d="M82.13,100.98l-10.56-12.35v12.35h-4v-38.86h4v18.44l9.51-8.58h5.97l-13.86,12.47,14.21,16.53h-5.28Z"/>
      <path class="cls-1" d="M94.83,62.41v38.57h-3.94v-38.57h3.94Z"/>
      <path class="cls-1" d="M105.82,99.67c-1.76-1.02-3.16-2.42-4.2-4.18-1.04-1.76-1.57-3.68-1.57-5.77v-17.75h4v17.75c0,1.35.34,2.61,1.02,3.77.68,1.16,1.6,2.08,2.75,2.75,1.16.68,2.42,1.01,3.77,1.01s2.61-.34,3.77-1.01c1.16-.68,2.08-1.59,2.76-2.75.68-1.16,1.01-2.42,1.01-3.77v-17.75h3.94v28.71h-3.94v-2.78c-.97,1.08-2.1,1.9-3.39,2.46-1.3.56-2.68.84-4.15.84-2.09,0-4.01-.51-5.77-1.54Z"/>
      <path class="cls-1" d="M133.23,95.76c1.08,1.01,2.67,1.51,4.76,1.51,1.82,0,3.29-.42,4.41-1.28,1.12-.85,1.68-1.95,1.68-3.31,0-1.28-.25-2.22-.75-2.84-.5-.62-1.15-1.01-1.94-1.19-.79-.17-1.88-.28-3.28-.32-2.01-.12-3.65-.34-4.93-.67-1.28-.33-2.44-1.07-3.48-2.23-1.28-1.58-1.91-3.32-1.91-5.22,0-.46.02-.81.06-1.04.31-2.44,1.33-4.3,3.07-5.6,1.74-1.3,4.08-1.94,7.02-1.94h.06c2.17,0,3.92.41,5.28,1.22,1.35.81,2.4,1.8,3.13,2.96.77,1.28,1.26,2.61,1.45,4h-4.06c-.08-.54-.33-1.18-.75-1.91-.97-1.47-2.65-2.24-5.05-2.32-2.44,0-4.04.41-4.81,1.22-.77.81-1.24,1.76-1.39,2.84-.04.16-.06.37-.06.64,0,.93.33,1.76.99,2.49.54.66,1.24,1.09,2.09,1.3.85.21,2.07.38,3.65.49,1.28.08,2.37.19,3.28.35.91.15,1.77.45,2.58.87,2.51,1.35,3.77,3.65,3.77,6.9,0,1.12-.22,2.2-.67,3.22-.45,1.03-1.07,1.92-1.89,2.7-1.82,1.78-4.31,2.67-7.48,2.67s-5.61-.87-7.54-2.61c-1.51-1.47-2.44-3.29-2.78-5.45h4.06c.31,1.08.79,1.93,1.45,2.55Z"/>
      <path class="cls-1" d="M155.73,88.63c.46,2.48,1.68,4.53,3.65,6.18,1.97,1.64,4.23,2.46,6.79,2.46,1.89,0,3.63-.44,5.22-1.33,1.59-.89,2.86-2.11,3.83-3.65l3.42,1.97c-1.31,2.13-3.07,3.83-5.28,5.1-2.2,1.28-4.6,1.91-7.19,1.91s-5.07-.66-7.31-1.97c-2.24-1.31-4.02-3.09-5.34-5.34-1.31-2.24-1.97-4.68-1.97-7.31s.66-5.11,1.97-7.34c1.31-2.22,3.09-3.99,5.34-5.31,2.24-1.31,4.68-1.97,7.31-1.97s5.06.66,7.31,1.97c2.24,1.31,4.02,3.08,5.34,5.31,1.31,2.22,1.97,4.67,1.97,7.34,0,.46-.04,1.12-.12,1.97h-24.94ZM161.18,77.17c-1.62.79-2.94,1.88-3.94,3.25-1.01,1.37-1.51,2.85-1.51,4.44h20.88c0-1.58-.5-3.06-1.51-4.44-1.01-1.37-2.31-2.46-3.92-3.25-1.6-.79-3.28-1.19-5.02-1.19s-3.36.4-4.99,1.19Z"/>
      <path class="cls-1" d="M203.26,73.52c1.76,1.02,3.16,2.42,4.21,4.18s1.57,3.68,1.57,5.77v17.52h-4v-17.52c0-1.35-.34-2.6-1.01-3.74-.68-1.14-1.6-2.05-2.76-2.73-1.16-.68-2.42-1.01-3.77-1.01s-2.61.34-3.77,1.01c-1.16.68-2.08,1.59-2.75,2.73-.68,1.14-1.01,2.39-1.01,3.74v17.52h-3.94v-28.25h3.94v2.55c.97-1.08,2.1-1.9,3.39-2.47,1.3-.56,2.68-.84,4.15-.84,2.09,0,4.01.51,5.77,1.54Z"/>
    </g>
    <path class="cls-1" d="M293.19,98.67c-7.33-11.23-32.47-34.7-48.16-46.27l-1.54-2.62c-9.9-16.87-21.13-35.99-33.56-48.43l-1.35-1.35-1.41,1.29c-22.61,20.64-35.66,29.74-35.79,29.83l2.28,3.29c.13-.09,12.82-8.93,34.78-28.87,11.55,12.1,22.19,30.21,31.61,46.26l.82,1.4c-4.84,3.46-19.98,14.25-22.46,15.9l2.22,3.33c2.61-1.74,18.35-12.97,22.87-16.19,14.69,10.99,36.98,31.69,45.17,42.92-6.69,4.19-21.48,14.36-37.04,25.08-19.66,13.54-41.78,28.76-50.42,33.84-9.04-14.31-21.83-25.35-22.39-25.83l-2.6,3.04c.14.12,13.87,11.98,22.59,26.51l.98,1.64,1.68-.91c7.3-3.93,30.24-19.72,52.43-35,17.15-11.8,33.35-22.96,38.63-26.04l1.82-1.06-1.15-1.76Z"/>
  </g>
</svg>