<?xml version="1.0" encoding="UTF-8"?>
<svg id="Lager_1" xmlns="http://www.w3.org/2000/svg" version="1.1" viewBox="0 0 19 19">
  <!-- Generator: Adobe Illustrator 29.1.0, SVG Export Plug-In . SVG Version: 2.1.0 Build 142)  -->
  <defs>
    <style>
      .st0 {
        fill: #fff;
      }

      .st1 {
        fill: #f19844;
      }
    </style>
  </defs>
  <path class="st1" d="M9.5,0h0c5.2,0,9.5,4.3,9.5,9.5h0c0,5.2-4.3,9.5-9.5,9.5h0C4.3,19,0,14.7,0,9.5H0C0,4.3,4.3,0,9.5,0Z"/>
  <path class="st0" d="M8.8,12.8v-2.8c0,0-1.1,0-1.1,0h-1.5v-1.3h2.6c0,0,0-1.1,0-1.1v-1.5h1.3v2.7c0,0,.9,0,.9,0h1.7v1.3h-2.6c0,0,0,1.1,0,1.1v1.6h-1.3Z"/>
</svg>