<?xml version="1.0" encoding="UTF-8"?>
<svg id="Lager_2" data-name="Lager 2" xmlns="http://www.w3.org/2000/svg" viewBox="0 0 1809.11 1809.16">
  <defs>
    <style>
      .cls-1 {
        fill: #f19844;
      }
    </style>
  </defs>
  <g id="Objects">
    <g>
      <path class="cls-1" d="M1545.55,1771.11c-7.16-5.98-14.21-13.16-20.04-20.04l-426.17-496.44c29.45-21.66,57.32-45.61,83.5-71.79,26.18-26.18,50.13-54.05,71.78-83.49l496.45,426.16c157.4,142.61-37.12,375.49-205.52,245.6Z"/>
      <path class="cls-1" d="M671.53,1343.06c-90.63,0-178.58-17.76-261.41-52.79-79.97-33.82-151.78-82.24-213.44-143.89-61.65-61.65-110.07-133.46-143.89-213.44C17.76,850.11,0,762.16,0,671.53s17.76-178.58,52.79-261.41c33.83-79.97,82.24-151.78,143.89-213.44,61.65-61.65,133.46-110.07,213.44-143.89C492.95,17.76,580.9,0,671.53,0s178.58,17.76,261.41,52.79c79.97,33.83,151.78,82.24,213.44,143.89,61.65,61.65,110.07,133.46,143.89,213.44,35.03,82.82,52.79,170.77,52.79,261.41s-17.76,178.58-52.79,261.41c-33.82,79.97-82.24,151.78-143.89,213.44-61.65,61.65-133.46,110.07-213.44,143.89-82.82,35.03-170.77,52.79-261.41,52.79ZM671.53,108.11c-76.08,0-149.86,14.89-219.29,44.25-67.09,28.37-127.34,69.01-179.11,120.77-51.76,51.76-92.39,112.02-120.77,179.11-29.37,69.43-44.25,143.21-44.25,219.29s14.89,149.86,44.25,219.29c28.37,67.09,69.01,127.34,120.77,179.11,51.76,51.76,112.02,92.39,179.11,120.77,69.43,29.36,143.21,44.25,219.29,44.25s149.86-14.89,219.29-44.25c67.09-28.37,127.34-69.01,179.11-120.77s92.39-112.02,120.77-179.11c29.36-69.43,44.25-143.21,44.25-219.29s-14.89-149.86-44.25-219.29c-28.37-67.09-69.01-127.34-120.77-179.11-51.76-51.76-112.02-92.39-179.11-120.77-69.43-29.37-143.21-44.25-219.29-44.25Z"/>
    </g>
  </g>
</svg>